<?xml version="1.0" encoding="utf-8"?>
<!-- Generator: Adobe Illustrator 16.0.0, SVG Export Plug-In . SVG Version: 6.00 Build 0)  -->
<!DOCTYPE svg PUBLIC "-//W3C//DTD SVG 1.1//EN" "http://www.w3.org/Graphics/SVG/1.1/DTD/svg11.dtd">
<svg version="1.1" id="Layer_1" xmlns="http://www.w3.org/2000/svg" xmlns:xlink="http://www.w3.org/1999/xlink" x="0px" y="0px"
	 width="28px" height="21px" viewBox="0 0 28 21" enable-background="new 0 0 28 21" xml:space="preserve">
<g>
	<polygon fill="#FFFFFF" points="19.493,2.984 21.042,1.432 19.613,0 17.228,2.391 14.844,0 13.416,1.432 14.964,2.984 6.457,2.984 
		6.457,7.165 8.477,7.165 8.477,5.01 16.145,5.01 16.145,7.165 18.166,7.165 18.166,5.01 25.98,5.01 25.98,18.975 18.166,18.975 
		18.166,16.629 16.145,16.629 16.145,18.975 8.477,18.975 8.477,16.628 6.457,16.628 6.457,21 28,21 28,2.984 	"/>
	<polygon fill="#FFFFFF" points="21.699,13.07 21.699,11.045 3.867,11.045 5.13,9.779 3.702,8.347 0,12.059 3.702,15.769 
		5.13,14.337 3.866,13.07 	"/>
</g>
</svg>
