<?xml version="1.0" encoding="utf-8"?>
<!-- Generator: Adobe Illustrator 16.0.0, SVG Export Plug-In . SVG Version: 6.00 Build 0)  -->
<!DOCTYPE svg PUBLIC "-//W3C//DTD SVG 1.1//EN" "http://www.w3.org/Graphics/SVG/1.1/DTD/svg11.dtd">
<svg version="1.1" id="Layer_1" xmlns="http://www.w3.org/2000/svg" xmlns:xlink="http://www.w3.org/1999/xlink" x="0px" y="0px"
	 width="22.015px" height="22.015px" viewBox="0 0 22.015 22.015" enable-background="new 0 0 22.015 22.015" xml:space="preserve">
<g>
	<defs>
		<rect id="SVGID_1_" width="22.015" height="22.015"/>
	</defs>
	<clipPath id="SVGID_2_">
		<use xlink:href="#SVGID_1_"  overflow="visible"/>
	</clipPath>
	<path clip-path="url(#SVGID_2_)" fill="#381C1C" d="M22.015,11.008C22.015,4.928,17.087,0,11.007,0C4.928,0,0,4.928,0,11.008
		s4.928,11.007,11.007,11.007C17.087,22.015,22.015,17.087,22.015,11.008"/>
	<path clip-path="url(#SVGID_2_)" fill="#F4D735" d="M6.18,10.669h2.129v2.109H6.18c-0.341,0-0.629-0.096-0.855-0.286
		c-0.224-0.188-0.334-0.442-0.334-0.777c0-0.323,0.111-0.571,0.339-0.76C5.563,10.763,5.841,10.669,6.18,10.669 M16.174,11.612
		c-0.644,0.783-1.589,1.18-2.813,1.18h-1.44v-2.111h0.792c0.591,0,1.034-0.155,1.354-0.475c0.296-0.299,0.446-0.708,0.446-1.22
		c-0.025-0.468-0.194-0.846-0.5-1.123c-0.306-0.274-0.697-0.414-1.162-0.414h-1.542v7.874c0,0.387-0.11,0.716-0.325,0.979
		c-0.214,0.261-0.505,0.387-0.887,0.387c-0.38,0-0.673-0.127-0.899-0.39c-0.225-0.268-0.335-0.586-0.335-0.976V6.831
		c0-0.476,0.129-0.838,0.395-1.106c0.262-0.263,0.634-0.398,1.107-0.398h2.656c1.252,0,2.206,0.313,2.836,0.93
		c0.233,0.221,0.441,0.485,0.618,0.782c0.179,0.297,0.317,0.615,0.411,0.944c0.092,0.33,0.139,0.664,0.139,0.991
		C17.023,10.053,16.737,10.939,16.174,11.612"/>
</g>
</svg>
